<?xml version="1.0" encoding="UTF-8"?>
<svg id="Layer_2" xmlns="http://www.w3.org/2000/svg" viewBox="0 0 1619.05 2000">
  <defs>
    <style>
      .cls-1 {
        fill: #1d1d1b;
      }

      .cls-2 {
        fill: #ed6ea7;
      }

      .cls-3 {
        fill: #fff;
      }

      .cls-4 {
        fill: #ffed00;
      }

      .cls-5 {
        fill: #e30613;
      }

      .cls-6 {
        fill: #e9c383;
      }

      .cls-7 {
        fill: #95c11f;
      }
    </style>
  </defs>
  <g id="Capa_1">
    <g>
      <rect class="cls-7" x="1333.33" y="1238.1" width="95.24" height="95.24"/>
      <rect class="cls-7" x="1428.57" y="1238.1" width="95.24" height="95.24"/>
      <rect class="cls-5" x="190.48" y="1238.1" width="95.24" height="95.24"/>
      <rect class="cls-1" x="95.24" y="1238.1" width="95.24" height="95.24"/>
      <rect class="cls-1" x="285.71" y="1238.1" width="95.24" height="95.24"/>
      <rect class="cls-1" x="857.14" y="1238.1" width="95.24" height="95.24"/>
      <rect class="cls-5" x="952.38" y="1238.1" width="95.24" height="95.24"/>
      <rect class="cls-1" x="1238.1" y="1238.1" width="95.24" height="95.24"/>
      <rect class="cls-1" x="1523.81" y="1238.1" width="95.24" height="95.24"/>
      <rect class="cls-1" x="1047.62" y="1238.1" width="95.24" height="95.24"/>
      <rect class="cls-1" x="1142.86" y="1238.1" width="95.24" height="95.24"/>
      <rect class="cls-3" x="476.19" y="1238.1" width="95.24" height="95.24"/>
      <rect class="cls-3" x="380.95" y="1238.1" width="95.24" height="95.24"/>
      <rect class="cls-3" x="666.67" y="1238.1" width="95.24" height="95.24"/>
      <rect class="cls-3" x="761.9" y="1238.1" width="95.24" height="95.24"/>
      <rect class="cls-3" x="571.43" y="1238.1" width="95.24" height="95.24"/>
      <rect class="cls-1" y="1333.33" width="95.24" height="95.24"/>
      <rect class="cls-1" x="380.95" y="1333.33" width="95.24" height="95.24"/>
      <rect class="cls-1" x="761.9" y="1333.33" width="95.24" height="95.24"/>
      <rect class="cls-1" x="952.38" y="1333.33" width="95.24" height="95.24"/>
      <rect class="cls-1" x="1238.1" y="1333.33" width="95.24" height="95.24"/>
      <rect class="cls-5" x="190.48" y="1333.33" width="95.24" height="95.24"/>
      <rect class="cls-5" x="95.24" y="1333.33" width="95.24" height="95.24"/>
      <rect class="cls-5" x="285.71" y="1333.33" width="95.24" height="95.24"/>
      <rect class="cls-5" x="857.14" y="1333.33" width="95.24" height="95.24"/>
      <rect class="cls-7" x="1333.33" y="1333.33" width="95.24" height="95.24"/>
      <rect class="cls-7" x="1428.57" y="1333.33" width="95.24" height="95.24"/>
      <rect class="cls-1" x="1523.81" y="1333.33" width="95.24" height="95.24"/>
      <rect class="cls-3" x="476.19" y="1333.33" width="95.24" height="95.24"/>
      <rect class="cls-3" x="666.67" y="1333.33" width="95.24" height="95.24"/>
      <rect class="cls-3" x="571.43" y="1333.33" width="95.24" height="95.24"/>
      <rect class="cls-3" x="1142.86" y="1333.33" width="95.24" height="95.24"/>
      <rect class="cls-3" x="1047.62" y="1333.33" width="95.24" height="95.24"/>
      <rect class="cls-1" y="1428.57" width="95.24" height="95.24"/>
      <rect class="cls-3" x="95.24" y="1428.57" width="95.24" height="95.24"/>
      <rect class="cls-5" x="380.95" y="1428.57" width="95.24" height="95.24"/>
      <rect class="cls-5" x="190.48" y="1428.57" width="95.24" height="95.24"/>
      <rect class="cls-5" x="285.71" y="1428.57" width="95.24" height="95.24"/>
      <rect class="cls-5" x="761.9" y="1428.57" width="95.24" height="95.24"/>
      <rect class="cls-1" x="952.38" y="1428.57" width="95.24" height="95.24"/>
      <rect class="cls-5" x="857.14" y="1428.57" width="95.24" height="95.24"/>
      <rect class="cls-1" x="1238.1" y="1428.57" width="95.24" height="95.24"/>
      <rect class="cls-7" x="1333.33" y="1428.57" width="95.24" height="95.24"/>
      <rect class="cls-7" x="1428.57" y="1428.57" width="95.24" height="95.24"/>
      <rect class="cls-1" x="1523.81" y="1428.57" width="95.24" height="95.24"/>
      <rect class="cls-1" x="476.19" y="1428.57" width="95.24" height="95.24"/>
      <rect class="cls-1" x="666.67" y="1428.57" width="95.24" height="95.24"/>
      <rect class="cls-1" x="571.43" y="1428.57" width="95.24" height="95.24"/>
      <rect class="cls-3" x="1142.86" y="1428.57" width="95.24" height="95.24"/>
      <rect class="cls-3" x="1047.62" y="1428.57" width="95.24" height="95.24"/>
      <rect class="cls-1" y="1523.81" width="95.24" height="95.24"/>
      <rect class="cls-3" x="95.24" y="1523.81" width="95.24" height="95.24"/>
      <rect class="cls-1" x="380.95" y="1523.81" width="95.24" height="95.24"/>
      <rect class="cls-1" x="190.48" y="1523.81" width="95.24" height="95.24"/>
      <rect class="cls-1" x="285.71" y="1523.81" width="95.24" height="95.24"/>
      <rect class="cls-4" x="476.19" y="1523.81" width="95.24" height="95.24"/>
      <rect class="cls-4" x="666.67" y="1523.81" width="95.24" height="95.24"/>
      <rect class="cls-4" x="571.43" y="1523.81" width="95.24" height="95.24"/>
      <rect class="cls-1" x="761.9" y="1523.81" width="95.24" height="95.24"/>
      <rect class="cls-1" x="952.38" y="1523.81" width="95.24" height="95.24"/>
      <rect class="cls-1" x="857.14" y="1523.81" width="95.24" height="95.24"/>
      <rect class="cls-7" x="1238.1" y="1523.81" width="95.24" height="95.24"/>
      <rect class="cls-7" x="1333.33" y="1523.81" width="95.24" height="95.24"/>
      <rect class="cls-7" x="1428.57" y="1523.81" width="95.24" height="95.24"/>
      <rect class="cls-1" x="1523.81" y="1523.81" width="95.24" height="95.24"/>
      <rect class="cls-1" x="1142.86" y="1523.81" width="95.24" height="95.24"/>
      <rect class="cls-1" x="1047.62" y="1523.81" width="95.24" height="95.24"/>
      <rect class="cls-1" x="95.24" y="1619.05" width="95.24" height="95.24"/>
      <rect class="cls-1" x="380.95" y="1619.05" width="95.24" height="95.24"/>
      <rect class="cls-1" x="190.48" y="1619.05" width="95.24" height="95.24"/>
      <rect class="cls-1" x="285.71" y="1619.05" width="95.24" height="95.24"/>
      <rect class="cls-4" x="476.19" y="1619.05" width="95.24" height="95.24"/>
      <rect class="cls-4" x="666.67" y="1619.05" width="95.24" height="95.24"/>
      <rect class="cls-4" x="571.43" y="1619.05" width="95.24" height="95.24"/>
      <rect class="cls-1" x="761.9" y="1619.05" width="95.24" height="95.24"/>
      <rect class="cls-1" x="952.38" y="1619.05" width="95.24" height="95.24"/>
      <rect class="cls-1" x="857.14" y="1619.05" width="95.24" height="95.24"/>
      <rect class="cls-7" x="1238.1" y="1619.05" width="95.24" height="95.24"/>
      <rect class="cls-7" x="1333.33" y="1619.05" width="95.24" height="95.24"/>
      <rect class="cls-1" x="1142.86" y="1619.05" width="95.24" height="95.24"/>
      <rect class="cls-1" x="1428.57" y="1619.05" width="95.24" height="95.24"/>
      <rect class="cls-1" x="1047.62" y="1619.05" width="95.24" height="95.24"/>
      <rect class="cls-1" x="190.48" y="1714.29" width="95.24" height="95.24"/>
      <rect class="cls-1" x="1238.1" y="1714.29" width="95.24" height="95.24"/>
      <rect class="cls-1" x="1333.33" y="1714.29" width="95.24" height="95.24"/>
      <rect class="cls-1" x="1142.86" y="1714.29" width="95.24" height="95.24"/>
      <rect class="cls-5" x="380.95" y="1714.29" width="95.24" height="95.24"/>
      <rect class="cls-5" x="285.71" y="1714.29" width="95.24" height="95.24"/>
      <rect class="cls-5" x="476.19" y="1714.29" width="95.24" height="95.24"/>
      <rect class="cls-5" x="666.67" y="1714.29" width="95.24" height="95.24"/>
      <rect class="cls-5" x="571.43" y="1714.29" width="95.24" height="95.24"/>
      <rect class="cls-5" x="761.9" y="1714.29" width="95.24" height="95.24"/>
      <rect class="cls-5" x="952.38" y="1714.29" width="95.24" height="95.24"/>
      <rect class="cls-5" x="857.14" y="1714.29" width="95.24" height="95.24"/>
      <rect class="cls-5" x="1047.62" y="1714.29" width="95.24" height="95.24"/>
      <rect class="cls-1" x="190.48" y="1809.52" width="95.24" height="95.24"/>
      <rect class="cls-5" x="380.95" y="1809.52" width="95.24" height="95.24"/>
      <rect class="cls-5" x="285.71" y="1809.52" width="95.24" height="95.24"/>
      <rect class="cls-1" x="476.19" y="1809.52" width="95.24" height="95.24"/>
      <rect class="cls-1" x="666.67" y="1809.52" width="95.24" height="95.24"/>
      <rect class="cls-1" x="571.43" y="1809.52" width="95.24" height="95.24"/>
      <rect class="cls-1" x="1142.86" y="1809.52" width="95.24" height="95.24"/>
      <rect class="cls-5" x="761.9" y="1809.52" width="95.24" height="95.24"/>
      <rect class="cls-5" x="952.38" y="1809.52" width="95.24" height="95.24"/>
      <rect class="cls-5" x="857.14" y="1809.52" width="95.24" height="95.24"/>
      <rect class="cls-5" x="1047.62" y="1809.52" width="95.24" height="95.24"/>
      <rect class="cls-1" x="190.48" y="1904.76" width="95.24" height="95.24"/>
      <rect class="cls-1" x="380.95" y="1904.76" width="95.24" height="95.24"/>
      <rect class="cls-1" x="285.71" y="1904.76" width="95.24" height="95.24"/>
      <rect class="cls-1" x="1142.86" y="1904.76" width="95.24" height="95.24"/>
      <rect class="cls-1" x="761.9" y="1904.76" width="95.24" height="95.24"/>
      <rect class="cls-1" x="952.38" y="1904.76" width="95.24" height="95.24"/>
      <rect class="cls-1" x="857.14" y="1904.76" width="95.24" height="95.24"/>
      <rect class="cls-1" x="1047.62" y="1904.76" width="95.24" height="95.24"/>
      <rect class="cls-7" x="1142.86" y="1047.62" width="95.24" height="95.24"/>
      <rect class="cls-7" x="1238.1" y="1047.62" width="95.24" height="95.24"/>
      <rect class="cls-3" x="190.48" y="1047.62" width="95.24" height="95.24"/>
      <rect class="cls-1" x="95.24" y="1047.62" width="95.24" height="95.24"/>
      <rect class="cls-3" x="476.19" y="1047.62" width="95.24" height="95.24"/>
      <rect class="cls-3" x="380.95" y="1047.62" width="95.24" height="95.24"/>
      <rect class="cls-3" x="666.67" y="1047.62" width="95.24" height="95.24"/>
      <rect class="cls-3" x="761.9" y="1047.62" width="95.24" height="95.24"/>
      <rect class="cls-1" x="1047.62" y="1047.62" width="95.24" height="95.24"/>
      <rect class="cls-1" x="1333.33" y="1047.62" width="95.24" height="95.24"/>
      <rect class="cls-3" x="952.38" y="1047.62" width="95.24" height="95.24"/>
      <rect class="cls-3" x="285.71" y="1047.62" width="95.24" height="95.24"/>
      <rect class="cls-3" x="571.43" y="1047.62" width="95.24" height="95.24"/>
      <rect class="cls-3" x="857.14" y="1047.62" width="95.24" height="95.24"/>
      <rect class="cls-1" x="1238.1" y="1142.86" width="95.24" height="95.24"/>
      <rect class="cls-7" x="1333.33" y="1142.86" width="95.24" height="95.24"/>
      <rect class="cls-1" x="190.48" y="1142.86" width="95.24" height="95.24"/>
      <rect class="cls-7" x="1142.86" y="1142.86" width="95.24" height="95.24"/>
      <rect class="cls-1" x="1428.57" y="1142.86" width="95.24" height="95.24"/>
      <rect class="cls-1" x="1047.62" y="1142.86" width="95.24" height="95.24"/>
      <rect class="cls-1" x="952.38" y="1142.86" width="95.24" height="95.24"/>
      <rect class="cls-3" x="476.19" y="1142.86" width="95.24" height="95.24"/>
      <rect class="cls-3" x="380.95" y="1142.86" width="95.24" height="95.24"/>
      <rect class="cls-3" x="666.67" y="1142.86" width="95.24" height="95.24"/>
      <rect class="cls-3" x="761.9" y="1142.86" width="95.24" height="95.24"/>
      <rect class="cls-3" x="285.71" y="1142.86" width="95.24" height="95.24"/>
      <rect class="cls-3" x="571.43" y="1142.86" width="95.24" height="95.24"/>
      <rect class="cls-3" x="857.14" y="1142.86" width="95.24" height="95.24"/>
      <rect class="cls-6" x="476.19" y="857.14" width="95.24" height="95.24"/>
      <rect class="cls-6" x="380.95" y="857.14" width="95.24" height="95.24"/>
      <rect class="cls-6" x="666.67" y="857.14" width="95.24" height="95.24"/>
      <rect class="cls-6" x="761.9" y="857.14" width="95.24" height="95.24"/>
      <rect class="cls-3" x="190.48" y="857.14" width="95.24" height="95.24"/>
      <rect class="cls-3" x="95.24" y="857.14" width="95.24" height="95.24"/>
      <rect class="cls-3" x="1047.62" y="857.14" width="95.24" height="95.24"/>
      <rect class="cls-3" x="1142.86" y="857.14" width="95.24" height="95.24"/>
      <rect class="cls-3" x="952.38" y="857.14" width="95.24" height="95.24"/>
      <rect class="cls-1" y="857.14" width="95.24" height="95.24"/>
      <rect class="cls-1" x="1238.1" y="857.14" width="95.24" height="95.24"/>
      <rect class="cls-2" x="285.71" y="857.14" width="95.24" height="95.24"/>
      <rect class="cls-2" x="571.43" y="857.14" width="95.24" height="95.24"/>
      <rect class="cls-2" x="857.14" y="857.14" width="95.24" height="95.24"/>
      <rect class="cls-3" x="190.48" y="952.38" width="95.24" height="95.24"/>
      <rect class="cls-3" x="95.24" y="952.38" width="95.24" height="95.24"/>
      <rect class="cls-1" y="952.38" width="95.24" height="95.24"/>
      <rect class="cls-1" x="1142.86" y="952.38" width="95.24" height="95.24"/>
      <rect class="cls-1" x="1238.1" y="952.38" width="95.24" height="95.24"/>
      <rect class="cls-3" x="476.19" y="952.38" width="95.24" height="95.24"/>
      <rect class="cls-3" x="380.95" y="952.38" width="95.24" height="95.24"/>
      <rect class="cls-3" x="666.67" y="952.38" width="95.24" height="95.24"/>
      <rect class="cls-3" x="761.9" y="952.38" width="95.24" height="95.24"/>
      <rect class="cls-3" x="1047.62" y="952.38" width="95.24" height="95.24"/>
      <rect class="cls-3" x="952.38" y="952.38" width="95.24" height="95.24"/>
      <rect class="cls-3" x="285.71" y="952.38" width="95.24" height="95.24"/>
      <rect class="cls-3" x="571.43" y="952.38" width="95.24" height="95.24"/>
      <rect class="cls-3" x="857.14" y="952.38" width="95.24" height="95.24"/>
      <rect class="cls-3" x="476.19" y="476.19" width="95.24" height="95.24"/>
      <rect class="cls-3" x="380.95" y="476.19" width="95.24" height="95.24"/>
      <rect class="cls-3" x="285.71" y="476.19" width="95.24" height="95.24"/>
      <rect class="cls-3" x="190.48" y="476.19" width="95.24" height="95.24"/>
      <rect class="cls-3" x="1047.62" y="476.19" width="95.24" height="95.24"/>
      <rect class="cls-1" x="1142.86" y="476.19" width="95.24" height="95.24"/>
      <rect class="cls-1" x="95.24" y="476.19" width="95.24" height="95.24"/>
      <rect class="cls-1" x="1333.33" y="476.19" width="95.24" height="95.24"/>
      <rect class="cls-3" x="1238.1" y="476.19" width="95.24" height="95.24"/>
      <rect class="cls-3" x="571.43" y="476.19" width="95.24" height="95.24"/>
      <rect class="cls-3" x="666.67" y="476.19" width="95.24" height="95.24"/>
      <rect class="cls-3" x="761.9" y="476.19" width="95.24" height="95.24"/>
      <rect class="cls-3" x="857.14" y="476.19" width="95.24" height="95.24"/>
      <rect class="cls-3" x="952.38" y="476.19" width="95.24" height="95.24"/>
      <rect class="cls-3" x="476.19" y="571.43" width="95.24" height="95.24"/>
      <rect class="cls-3" x="380.95" y="571.43" width="95.24" height="95.24"/>
      <rect class="cls-3" x="285.71" y="571.43" width="95.24" height="95.24"/>
      <rect class="cls-3" x="190.48" y="571.43" width="95.24" height="95.24"/>
      <rect class="cls-3" x="1047.62" y="571.43" width="95.24" height="95.24"/>
      <rect class="cls-1" x="1142.86" y="571.43" width="95.24" height="95.24"/>
      <rect class="cls-1" x="1238.1" y="571.43" width="95.24" height="95.24"/>
      <rect class="cls-1" x="95.24" y="571.43" width="95.24" height="95.24"/>
      <rect class="cls-3" x="571.43" y="571.43" width="95.24" height="95.24"/>
      <rect class="cls-3" x="666.67" y="571.43" width="95.24" height="95.24"/>
      <rect class="cls-3" x="761.9" y="571.43" width="95.24" height="95.24"/>
      <rect class="cls-3" x="857.14" y="571.43" width="95.24" height="95.24"/>
      <rect class="cls-3" x="952.38" y="571.43" width="95.24" height="95.24"/>
      <rect class="cls-1" x="476.19" y="666.67" width="95.24" height="95.24"/>
      <rect class="cls-1" x="380.95" y="666.67" width="95.24" height="95.24"/>
      <rect class="cls-1" x="285.71" y="666.67" width="95.24" height="95.24"/>
      <rect class="cls-1" x="190.48" y="666.67" width="95.24" height="95.24"/>
      <rect class="cls-1" x="1047.62" y="666.67" width="95.24" height="95.24"/>
      <rect class="cls-1" x="1142.86" y="666.67" width="95.24" height="95.24"/>
      <rect class="cls-1" x="95.24" y="666.67" width="95.24" height="95.24"/>
      <rect class="cls-1" x="571.43" y="666.67" width="95.24" height="95.24"/>
      <rect class="cls-1" x="666.67" y="666.67" width="95.24" height="95.24"/>
      <rect class="cls-1" x="761.9" y="666.67" width="95.24" height="95.24"/>
      <rect class="cls-1" x="857.14" y="666.67" width="95.24" height="95.24"/>
      <rect class="cls-1" x="952.38" y="666.67" width="95.24" height="95.24"/>
      <rect class="cls-3" x="190.48" y="761.9" width="95.24" height="95.24"/>
      <rect class="cls-1" x="95.24" y="761.9" width="95.24" height="95.24"/>
      <rect class="cls-6" x="476.19" y="761.9" width="95.24" height="95.24"/>
      <rect class="cls-1" x="380.95" y="761.9" width="95.24" height="95.24"/>
      <rect class="cls-6" x="285.71" y="761.9" width="95.24" height="95.24"/>
      <rect class="cls-6" x="571.43" y="761.9" width="95.24" height="95.24"/>
      <rect class="cls-6" x="666.67" y="761.9" width="95.24" height="95.24"/>
      <rect class="cls-1" x="761.9" y="761.9" width="95.24" height="95.24"/>
      <rect class="cls-6" x="857.14" y="761.9" width="95.24" height="95.24"/>
      <rect class="cls-3" x="1047.62" y="761.9" width="95.24" height="95.24"/>
      <rect class="cls-1" x="1142.86" y="761.9" width="95.24" height="95.24"/>
      <rect class="cls-3" x="952.38" y="761.9" width="95.24" height="95.24"/>
      <rect class="cls-1" x="476.19" y="95.24" width="95.24" height="95.24"/>
      <rect class="cls-1" x="1047.62" y="95.24" width="95.24" height="95.24"/>
      <rect class="cls-5" x="571.43" y="95.24" width="95.24" height="95.24"/>
      <rect class="cls-5" x="666.67" y="95.24" width="95.24" height="95.24"/>
      <rect class="cls-5" x="761.9" y="95.24" width="95.24" height="95.24"/>
      <rect class="cls-5" x="857.14" y="95.24" width="95.24" height="95.24"/>
      <rect class="cls-5" x="952.38" y="95.24" width="95.24" height="95.24"/>
      <rect class="cls-5" x="476.19" y="190.48" width="95.24" height="95.24"/>
      <rect class="cls-1" x="380.95" y="190.48" width="95.24" height="95.24"/>
      <rect class="cls-1" x="1047.62" y="190.48" width="95.24" height="95.24"/>
      <rect class="cls-1" x="1142.86" y="190.48" width="95.24" height="95.24"/>
      <rect class="cls-5" x="571.43" y="190.48" width="95.24" height="95.24"/>
      <rect class="cls-5" x="666.67" y="190.48" width="95.24" height="95.24"/>
      <rect class="cls-5" x="761.9" y="190.48" width="95.24" height="95.24"/>
      <rect class="cls-5" x="857.14" y="190.48" width="95.24" height="95.24"/>
      <rect class="cls-1" x="952.38" y="190.48" width="95.24" height="95.24"/>
      <rect class="cls-5" x="476.19" y="285.71" width="95.24" height="95.24"/>
      <rect class="cls-5" x="380.95" y="285.71" width="95.24" height="95.24"/>
      <rect class="cls-1" x="285.71" y="285.71" width="95.24" height="95.24"/>
      <rect class="cls-5" x="1047.62" y="285.71" width="95.24" height="95.24"/>
      <rect class="cls-1" x="1142.86" y="285.71" width="95.24" height="95.24"/>
      <rect class="cls-1" x="1238.1" y="285.71" width="95.24" height="95.24"/>
      <rect class="cls-5" x="571.43" y="285.71" width="95.24" height="95.24"/>
      <rect class="cls-5" x="666.67" y="285.71" width="95.24" height="95.24"/>
      <rect class="cls-5" x="761.9" y="285.71" width="95.24" height="95.24"/>
      <rect class="cls-5" x="857.14" y="285.71" width="95.24" height="95.24"/>
      <rect class="cls-5" x="952.38" y="285.71" width="95.24" height="95.24"/>
      <rect class="cls-1" x="476.19" y="380.95" width="95.24" height="95.24"/>
      <rect class="cls-1" x="380.95" y="380.95" width="95.24" height="95.24"/>
      <rect class="cls-1" x="285.71" y="380.95" width="95.24" height="95.24"/>
      <rect class="cls-1" x="190.48" y="380.95" width="95.24" height="95.24"/>
      <rect class="cls-1" x="1047.62" y="380.95" width="95.24" height="95.24"/>
      <rect class="cls-1" x="1142.86" y="380.95" width="95.24" height="95.24"/>
      <rect class="cls-1" x="1333.33" y="380.95" width="95.24" height="95.24"/>
      <rect class="cls-3" x="1238.1" y="380.95" width="95.24" height="95.24"/>
      <rect class="cls-1" x="571.43" y="380.95" width="95.24" height="95.24"/>
      <rect class="cls-1" x="666.67" y="380.95" width="95.24" height="95.24"/>
      <rect class="cls-1" x="761.9" y="380.95" width="95.24" height="95.24"/>
      <rect class="cls-1" x="857.14" y="380.95" width="95.24" height="95.24"/>
      <rect class="cls-1" x="952.38" y="380.95" width="95.24" height="95.24"/>
      <rect class="cls-1" x="571.43" width="95.24" height="95.24"/>
      <rect class="cls-1" x="666.67" width="95.24" height="95.24"/>
      <rect class="cls-1" x="761.9" width="95.24" height="95.24"/>
      <rect class="cls-1" x="857.14" width="95.24" height="95.24"/>
      <rect class="cls-1" x="952.38" width="95.24" height="95.24"/>
    </g>
  </g>
</svg>